<?xml version="1.0" encoding="iso-8859-1"?>
<!-- Generator: Adobe Illustrator 19.0.0, SVG Export Plug-In . SVG Version: 6.00 Build 0)  -->
<svg xmlns="http://www.w3.org/2000/svg" xmlns:xlink="http://www.w3.org/1999/xlink" version="1.1" id="Capa_1" x="0px" y="0px" viewBox="0 0 512 512" style="enable-background:new 0 0 512 512;" xml:space="preserve" width="512px" height="512px">
<g>
	<g>
		<path d="M400.461,64.697V0L81.514,67.541V512h348.972V64.697H400.461z M370.458,37.02v27.677H239.762L370.458,37.02z     M400.484,481.998H111.516V94.699h288.968V481.998z" fill="#FFFFFF"/>
	</g>
</g>
<g>
	<g>
		<path d="M256,143.888c-63.1,0-114.434,51.335-114.434,114.434S192.9,372.757,255.999,372.757s114.434-51.335,114.434-114.434    S319.099,143.888,256,143.888z M339.071,243.322h-32.565c-1.872-26.47-8.536-46.92-15.98-62.019    C315.518,192.55,334.076,215.6,339.071,243.322z M172.93,273.324h32.564c1.872,26.47,8.536,46.92,15.98,62.018    C196.482,324.094,177.924,301.045,172.93,273.324z M205.494,243.322H172.93c4.994-27.721,23.553-50.771,48.544-62.018    C214.03,196.402,207.367,216.852,205.494,243.322z M256,335.224c-7.771-11.025-17.864-30.914-20.414-61.9h40.826    C273.864,304.31,263.77,324.199,256,335.224z M235.586,243.322c2.549-30.986,12.643-50.876,20.414-61.901    c7.771,11.025,17.864,30.914,20.412,61.901H235.586z M290.525,335.342c7.445-15.099,14.107-35.549,15.98-62.02h32.565    C334.076,301.045,315.518,324.094,290.525,335.342z" fill="#FFFFFF"/>
	</g>
</g>
<g>
	<g>
		<rect x="156.571" y="402.809" width="198.864" height="30.002" fill="#FFFFFF"/>
	</g>
</g>
<g>
</g>
<g>
</g>
<g>
</g>
<g>
</g>
<g>
</g>
<g>
</g>
<g>
</g>
<g>
</g>
<g>
</g>
<g>
</g>
<g>
</g>
<g>
</g>
<g>
</g>
<g>
</g>
<g>
</g>
</svg>
