<?xml version="1.0" encoding="iso-8859-1"?>
<!-- Generator: Adobe Illustrator 19.0.0, SVG Export Plug-In . SVG Version: 6.00 Build 0)  -->
<svg xmlns="http://www.w3.org/2000/svg" xmlns:xlink="http://www.w3.org/1999/xlink" version="1.1" id="Capa_1" x="0px" y="0px" viewBox="0 0 512 512" style="enable-background:new 0 0 512 512;" xml:space="preserve" width="512px" height="512px">
<g>
	<g>
		<path d="M466,60h-45V15c0-8.284-6.716-15-15-15H76C51.187,0,31,20.187,31,45v422c0,24.813,20.187,45,45,45h330    c8.284,0,15-6.716,15-15v-15h45c8.284,0,15-6.716,15-15V75C481,66.716,474.284,60,466,60z M391,482H76c-8.271,0-15-6.729-15-15V45    c0-8.271,6.729-15,15-15h315V482z M451,452h-30V90h30V452z" fill="#FFFFFF"/>
	</g>
</g>
<g>
	<g>
		<path d="M313.038,171.604l34.781-34.782c17.586-17.585,17.589-46.052,0-63.64c-17.585-17.586-46.051-17.59-63.639,0    l-34.782,34.781l-75.183-37.591c-5.773-2.888-12.749-1.756-17.314,2.81l-42.426,42.426c-3.241,3.241-4.822,7.786-4.293,12.339    s3.111,8.614,7.009,11.024l62.526,38.673l-26.867,26.868l-23.024-7.675c-5.39-1.796-11.333-0.393-15.35,3.624l-21.213,21.213    c-5.858,5.858-5.858,15.355,0,21.213l84.851,84.852c5.857,5.858,15.355,5.859,21.213,0l21.213-21.213    c4.018-4.017,5.42-9.96,3.624-15.35l-7.675-23.024l26.868-26.867l38.673,62.526c2.411,3.898,6.472,6.479,11.024,7.009    c4.559,0.53,9.099-1.052,12.339-4.293l42.426-42.426c4.565-4.565,5.697-11.54,2.81-17.314L313.038,171.604z M297.576,271.915    l-38.673-62.526c-2.411-3.898-6.472-6.479-11.024-7.009c-4.555-0.531-9.099,1.052-12.339,4.293l-46.82,46.82    c-4.018,4.017-5.42,9.96-3.624,15.35l7.675,23.024l-4.052,4.051l-63.639-63.639l4.052-4.051l23.024,7.675    c5.391,1.797,11.333,0.394,15.35-3.624l46.82-46.82c3.241-3.241,4.823-7.786,4.293-12.339c-0.529-4.553-3.111-8.614-7.009-11.024    l-62.526-38.673l21.384-21.384l75.183,37.591c5.774,2.887,12.75,1.755,17.314-2.81l42.427-42.426    c5.861-5.862,15.349-5.864,21.213,0c5.862,5.862,5.864,15.35,0,21.213l-42.426,42.427c-4.565,4.565-5.697,11.54-2.81,17.314    l37.591,75.183L297.576,271.915z" fill="#FFFFFF"/>
	</g>
</g>
<g>
	<g>
		<path d="M346,362H106c-8.284,0-15,6.716-15,15s6.716,15,15,15h240c8.284,0,15-6.716,15-15S354.284,362,346,362z" fill="#FFFFFF"/>
	</g>
</g>
<g>
	<g>
		<path d="M316,422H136c-8.284,0-15,6.716-15,15s6.716,15,15,15h180c8.284,0,15-6.716,15-15S324.284,422,316,422z" fill="#FFFFFF"/>
	</g>
</g>
<g>
</g>
<g>
</g>
<g>
</g>
<g>
</g>
<g>
</g>
<g>
</g>
<g>
</g>
<g>
</g>
<g>
</g>
<g>
</g>
<g>
</g>
<g>
</g>
<g>
</g>
<g>
</g>
<g>
</g>
</svg>
