<?xml version="1.0" encoding="iso-8859-1"?>
<!-- Generator: Adobe Illustrator 19.0.0, SVG Export Plug-In . SVG Version: 6.00 Build 0)  -->
<svg xmlns="http://www.w3.org/2000/svg" xmlns:xlink="http://www.w3.org/1999/xlink" version="1.1" id="Capa_1" x="0px" y="0px" viewBox="0 0 512 512" style="enable-background:new 0 0 512 512;" xml:space="preserve" width="512px" height="512px">
<g>
	<g>
		<path d="M316,60h-30c-8.284,0-15,6.716-15,15s6.716,15,15,15h30c8.284,0,15-6.716,15-15S324.284,60,316,60z" fill="#FFFFFF"/>
	</g>
</g>
<g>
	<g>
		<path d="M436,60h-45V45c0-24.813-20.187-45-45-45H136c-24.813,0-45,20.187-45,45v168.58c-17.459,6.192-30,22.865-30,42.42    s12.541,36.228,30,42.42V301c0,40.762,16.095,78.893,45.318,107.367c9.468,9.225,14.682,20.961,14.682,33.046V497    c0,8.284,6.716,15,15,15h150c8.284,0,15-6.716,15-15v-55.586c0-12.085,5.214-23.821,14.681-33.046    C374.905,379.893,391,341.762,391,301v-2.58c17.459-6.192,30-22.865,30-42.42c0-19.555-12.541-36.228-30-42.42V90h30v15    c0,8.284,6.716,15,15,15s15-6.716,15-15V75C451,66.716,444.284,60,436,60z M121,45c0-8.271,6.729-15,15-15h210    c8.271,0,15,6.729,15,15v166H121V45z M324.745,386.881C309.433,401.801,301,421.167,301,441.414V482H181v-40.586    c0-20.246-8.433-39.613-23.746-54.533C133.875,364.101,121,333.402,121,300.8h240C361,333.402,348.125,364.101,324.745,386.881z     M376,271H106c-8.271,0-15-6.729-15-15s6.729-15,15-15h270c8.271,0,15,6.729,15,15S384.271,271,376,271z" fill="#FFFFFF"/>
	</g>
</g>
<g>
</g>
<g>
</g>
<g>
</g>
<g>
</g>
<g>
</g>
<g>
</g>
<g>
</g>
<g>
</g>
<g>
</g>
<g>
</g>
<g>
</g>
<g>
</g>
<g>
</g>
<g>
</g>
<g>
</g>
</svg>
